<svg xmlns="http://www.w3.org/2000/svg" width="1200" height="630" viewBox="0 0 1200 630">
  <defs>
    <pattern id="grid" width="80" height="80" patternUnits="userSpaceOnUse"><path d="M80 0H0V80" fill="none" stroke="#171a1f"/></pattern>
    <linearGradient id="sig" x1="0" y1="0" x2="1" y2="1"><stop stop-color="#ffb000"/><stop offset="1" stop-color="#70d7e8"/></linearGradient>
  </defs>
  <rect width="1200" height="630" fill="#0a0b0d"/><rect width="1200" height="630" fill="url(#grid)"/>
  <path d="M735 115C870 50 950 102 1010 175S930 280 1060 360 920 500 720 435 780 320 735 115" fill="none" stroke="#182f34" stroke-width="18" stroke-linecap="round"/>
  <path d="M735 115C870 50 950 102 1010 175S930 280 1060 360 920 500 720 435 780 320 735 115" fill="none" stroke="url(#sig)" stroke-width="4" stroke-linecap="round" stroke-dasharray="10 10"/>
  <g fill="#0a0b0d" stroke="#ffb000" stroke-width="5"><circle cx="735" cy="115" r="10"/><circle cx="930" cy="280" r="10"/><circle cx="780" cy="320" r="10"/></g>
  <rect x="64" y="58" width="64" height="64" rx="13" fill="#ffb000"/><text x="86" y="102" fill="#0a0b0d" font-family="Arial,sans-serif" font-size="38" font-weight="900">D</text>
  <text x="148" y="102" fill="#f3efe5" font-family="Arial,sans-serif" font-size="30" font-weight="800">domse.dev</text>
  <text x="64" y="266" fill="#f3efe5" font-family="Arial,sans-serif" font-size="82" font-weight="900" letter-spacing="-4">TOOLS, SYSTEME</text>
  <text x="64" y="358" fill="#ffb000" font-family="Arial,sans-serif" font-size="82" font-weight="900" letter-spacing="-4">&amp; MEDIEN.</text>
  <text x="68" y="445" fill="#c8c7c2" font-family="Arial,sans-serif" font-size="27">Persönliche Projekte, die nicht in einer Ideenliste</text>
  <text x="68" y="482" fill="#c8c7c2" font-family="Arial,sans-serif" font-size="27">liegen bleiben, sondern laufen.</text>
  <g font-family="monospace" font-size="18" font-weight="700"><rect x="68" y="535" width="116" height="44" fill="#0a0b0d" stroke="#70d7e8" stroke-width="2"/><text x="84" y="563" fill="#70d7e8">E-BIKE</text><rect x="196" y="535" width="105" height="44" fill="#0a0b0d" stroke="#ffb000" stroke-width="2"/><text x="212" y="563" fill="#ffb000">SPORT</text><rect x="313" y="535" width="136" height="44" fill="#0a0b0d" stroke="#f3efe5" stroke-width="2"/><text x="329" y="563" fill="#f3efe5">HOMELAB</text></g>
</svg>
